<svg xmlns="http://www.w3.org/2000/svg" viewBox="0 0 100 100" fill="none" stroke="#c9a84c" stroke-width="1.2" stroke-linecap="round" stroke-linejoin="round">
  <!-- Left hemisphere -->
  <path d="M48 8 C34 8, 10 20, 10 40 C10 48, 14 53, 12 61 C8 69, 6 76, 10 84 C16 94, 30 98, 44 98 L50 98"/>
  <!-- Right hemisphere -->
  <path d="M52 8 C66 8, 90 20, 90 40 C90 48, 86 53, 88 61 C92 69, 94 76, 90 84 C84 94, 70 98, 56 98 L50 98"/>
  <!-- Central fissure -->
  <path d="M50 12 L50 98" stroke-dasharray="2 4" opacity="0.2"/>
</svg>
