<svg xmlns="http://www.w3.org/2000/svg" viewBox="0 0 64 64" width="64" height="64" fill="none" stroke="#c9a84c" stroke-width="1.5" stroke-linecap="round" stroke-linejoin="round">
  <!-- Left hemisphere -->
  <path d="M30 8 C22 8, 14 14, 14 22 C14 26, 16 29, 14 33 C12 37, 10 40, 12 45 C14 50, 20 54, 28 54 L32 54"/>
  <!-- Right hemisphere -->
  <path d="M34 8 C42 8, 50 14, 50 22 C50 26, 48 29, 50 33 C52 37, 54 40, 52 45 C50 50, 44 54, 36 54 L32 54"/>
  <!-- Central fissure -->
  <path d="M32 10 L32 54" stroke-dasharray="2 3" opacity="0.4"/>
  <!-- Circuit traces left -->
  <path d="M20 22 L24 22 L24 28" opacity="0.6"/>
  <circle cx="20" cy="22" r="1.5" fill="#c9a84c" stroke="none" opacity="0.6"/>
  <circle cx="24" cy="28" r="1.5" fill="#c9a84c" stroke="none" opacity="0.6"/>
  <!-- Circuit traces right -->
  <path d="M44 22 L40 22 L40 28" opacity="0.6"/>
  <circle cx="44" cy="22" r="1.5" fill="#c9a84c" stroke="none" opacity="0.6"/>
  <circle cx="40" cy="28" r="1.5" fill="#c9a84c" stroke="none" opacity="0.6"/>
  <!-- Lower circuit traces -->
  <path d="M22 38 L26 38 L26 44" opacity="0.5"/>
  <circle cx="22" cy="38" r="1.2" fill="#c9a84c" stroke="none" opacity="0.5"/>
  <circle cx="26" cy="44" r="1.2" fill="#c9a84c" stroke="none" opacity="0.5"/>
  <path d="M42 38 L38 38 L38 44" opacity="0.5"/>
  <circle cx="42" cy="38" r="1.2" fill="#c9a84c" stroke="none" opacity="0.5"/>
  <circle cx="38" cy="44" r="1.2" fill="#c9a84c" stroke="none" opacity="0.5"/>
  <!-- Stem -->
  <path d="M32 54 L32 58"/>
</svg>
