<svg xmlns="http://www.w3.org/2000/svg" viewBox="0 0 100 100" fill="none" stroke="#c9a84c" stroke-width="1.2" stroke-linecap="round" stroke-linejoin="round">
  <!-- Left hemisphere -->
  <path d="M48 8 C34 8, 10 20, 10 40 C10 48, 14 53, 12 61 C8 69, 6 76, 10 84 C16 94, 30 98, 44 98 L50 98"/>
  <!-- Right hemisphere -->
  <path d="M52 8 C66 8, 90 20, 90 40 C90 48, 86 53, 88 61 C92 69, 94 76, 90 84 C84 94, 70 98, 56 98 L50 98"/>
  <!-- Central fissure -->
  <path d="M50 12 L50 98" stroke-dasharray="2 4" opacity="0.25"/>
  <!-- Cortex folds left -->
  <path d="M24 30 C28 28, 34 32, 30 36" opacity="0.3" stroke-width="1"/>
  <path d="M18 50 C22 48, 28 52, 24 56" opacity="0.25" stroke-width="1"/>
  <!-- Cortex folds right -->
  <path d="M76 30 C72 28, 66 32, 70 36" opacity="0.3" stroke-width="1"/>
  <path d="M82 50 C78 48, 72 52, 76 56" opacity="0.25" stroke-width="1"/>
  <!-- Circuit traces upper left -->
  <path d="M26 36 L32 36 L32 44" opacity="0.45"/>
  <circle cx="26" cy="36" r="1.8" fill="#c9a84c" stroke="none" opacity="0.45"/>
  <circle cx="32" cy="44" r="1.8" fill="#c9a84c" stroke="none" opacity="0.45"/>
  <!-- Circuit traces upper right -->
  <path d="M74 36 L68 36 L68 44" opacity="0.45"/>
  <circle cx="74" cy="36" r="1.8" fill="#c9a84c" stroke="none" opacity="0.45"/>
  <circle cx="68" cy="44" r="1.8" fill="#c9a84c" stroke="none" opacity="0.45"/>
  <!-- Circuit traces lower left -->
  <path d="M22 66 L28 66 L28 74" opacity="0.35"/>
  <circle cx="22" cy="66" r="1.4" fill="#c9a84c" stroke="none" opacity="0.35"/>
  <circle cx="28" cy="74" r="1.4" fill="#c9a84c" stroke="none" opacity="0.35"/>
  <!-- Circuit traces lower right -->
  <path d="M78 66 L72 66 L72 74" opacity="0.35"/>
  <circle cx="78" cy="66" r="1.4" fill="#c9a84c" stroke="none" opacity="0.35"/>
  <circle cx="72" cy="74" r="1.4" fill="#c9a84c" stroke="none" opacity="0.35"/>
  <!-- Deep connection -->
  <path d="M36 52 L44 48 M56 48 L64 52" opacity="0.2" stroke-width="0.8"/>
  <circle cx="44" cy="48" r="1.2" fill="#c9a84c" stroke="none" opacity="0.25"/>
  <circle cx="56" cy="48" r="1.2" fill="#c9a84c" stroke="none" opacity="0.25"/>
</svg>
